HIERARCHY
ROOT Hips
{
     OFFSET 1.88212 96.90440 -13.34250
     CHANNELS 6 Xposition Yposition Zposition Zrotation Xrotation Yrotation
     JOINT Spine
     {
          OFFSET 0.00000 11.89050 0.00000
          CHANNELS 3 Zrotation Xrotation Yrotation
          JOINT Spine1
          {
               OFFSET -0.00000 25.65740 0.12766
               CHANNELS 3 Zrotation Xrotation Yrotation
               JOINT HEad
               {
                    OFFSET 0.00000 8.73416 0.01134
                    CHANNELS 3 Zrotation Xrotation Yrotation
                    End Site
                    {
                         OFFSET -0.29000 12.77420 2.51395
                    }
               }
               JOINT LeftShoulder1
               {
                    OFFSET 8.99000 -0.36225 -0.22000
                    CHANNELS 3 Zrotation Xrotation Yrotation
                    JOINT LeftArm
                    {
                         OFFSET 10.28270 -0.00338 0.32212
                         CHANNELS 3 Zrotation Xrotation Yrotation
                         JOINT LeftForeArm
                         {
                              OFFSET 32.76690 0.09914 -1.42434
                              CHANNELS 3 Zrotation Xrotation Yrotation
                              JOINT LeftHand
                              {
                                   OFFSET 27.56430 0.08536 1.02216
                                   CHANNELS 3 Zrotation Xrotation Yrotation
                                   End Site
                                   {
                                        OFFSET 16.74430 -0.60000 1.50291
                                   }
                              }
                         }
                    }
               }
               JOINT RightShoulder
               {
                    OFFSET -8.99000 -0.36225 -0.22000
                    CHANNELS 3 Zrotation Xrotation Yrotation
                    JOINT RightArm
                    {
                         OFFSET -10.28270 -0.00338 0.32212
                         CHANNELS 3 Zrotation Xrotation Yrotation
                         JOINT RightForeArm
                         {
                              OFFSET -32.89710 0.09914 -1.42434
                              CHANNELS 3 Zrotation Xrotation Yrotation
                              JOINT RightHand
                              {
                                   OFFSET -27.49210 0.08536 1.02216
                                   CHANNELS 3 Zrotation Xrotation Yrotation
                                   End Site
                                   {
                                        OFFSET -16.63120 -0.60000 1.50291
                                   }
                              }
                         }
                    }
               }
          }
     }
     JOINT LeftUpLeg
     {
          OFFSET 8.94580 -8.66707 0.10165
          CHANNELS 3 Zrotation Xrotation Yrotation
          JOINT LeftLeg
          {
               OFFSET 0.00000 -44.42270 1.37270
               CHANNELS 3 Zrotation Xrotation Yrotation
               JOINT LeftFoot
               {
                    OFFSET -0.25355 -42.09240 -1.46059
                    CHANNELS 3 Zrotation Xrotation Yrotation
                    JOINT LeftToes
                    {
                         OFFSET -0.04000 -4.41509 8.49910
                         CHANNELS 3 Zrotation Xrotation Yrotation
                         End Site
                         {
                              OFFSET 0.08000 -0.04745 9.77979
                         }
                    }
               }
          }
     }
     JOINT RightUpLeg
     {
          OFFSET -8.94580 -8.66707 0.10165
          CHANNELS 3 Zrotation Xrotation Yrotation
          JOINT RightLeg
          {
               OFFSET 0.00000 -44.42270 1.37270
               CHANNELS 3 Zrotation Xrotation Yrotation
               JOINT RightFoot
               {
                    OFFSET 0.25355 -42.09240 -1.46059
                    CHANNELS 3 Zrotation Xrotation Yrotation
                    JOINT RightToes
                    {
                         OFFSET 0.04000 -4.41509 8.49910
                         CHANNELS 3 Zrotation Xrotation Yrotation
                         End Site
                         {
                              OFFSET -0.08000 -0.13745 9.77979
                         }
                    }
               }
          }
     }
}
MOTION
Frames: 8
Frame Time: 0.01667
-410.10736 91.42651 257.40692 29.68551 -36.57281 6.91499 -22.39913 37.18067 8.42778 -0.06933 0.07811 0.01735 -18.58683 13.04738 6.24753 -7.69979 9.04965 4.15637 -68.21132 -67.48138 -46.90245 -22.31966 30.54622 -81.89047 15.67048 7.39278 -10.55189 12.64972 4.66991 6.12854 64.62630 23.35701 60.81763 0.70868 26.43467 100.97702 19.90671 11.63143 4.29022 7.98690 -17.02926 49.09555 29.04268 68.41508 -7.34192 -20.85119 0.10602 0.22698 -3.73158 13.22913 2.95512 -46.81342 11.45525 25.32323 45.16853 22.42888 -43.30643 -28.07874 0.00448 -0.00493 4.54310 -37.25924 19.18767 
-410.63345 91.87720 256.54782 29.04860 -34.66161 8.02527 -24.05792 37.84433 9.03306 -0.02080 0.02295 0.00219 -17.26593 12.02816 5.34767 -13.14053 12.56238 3.50151 -83.97304 -71.83371 -70.64774 -24.20603 35.41040 -81.70632 16.46858 7.32887 -9.03193 11.06492 5.69243 5.43148 66.91083 21.38790 62.86323 0.21433 26.53884 101.93670 19.79282 11.73529 4.25493 9.16883 -22.04481 52.55492 48.99586 69.88234 -27.48525 -13.59085 0.06259 0.18708 -4.89021 13.95607 2.16349 -45.24266 11.53795 24.34614 44.07134 19.92690 -44.19421 -27.53811 0.00424 -0.00591 4.29778 -35.91673 20.02704 
-411.21423 92.21458 255.72797 28.37052 -32.83263 9.07686 -25.98155 38.51003 9.92535 -0.01912 0.01980 0.00009 -15.66782 10.97927 4.42196 -15.70846 14.55359 2.72854 -102.49908 -72.79310 -94.44772 -26.31546 39.94214 -81.28076 17.41437 7.20914 -8.42352 10.65068 6.00145 4.53593 68.76898 19.86855 64.05476 -0.30975 26.64394 102.96145 19.68302 11.86445 4.16257 10.48578 -26.63001 55.73827 68.14098 69.40178 -46.36077 -8.45420 0.04437 0.14136 -6.40758 13.51029 1.85729 -43.61525 11.59563 23.42401 42.89059 17.46618 -45.06247 -26.98907 0.00320 -0.00624 3.99256 -34.58943 20.81883 
-411.82446 92.49116 254.97913 27.62460 -31.07764 10.05191 -27.70162 38.94583 10.75481 0.00368 -0.00225 -0.00481 -14.20874 10.19958 3.65593 -16.52879 15.61877 1.88914 -117.35249 -71.58778 -112.58950 -28.63290 44.18717 -80.61024 18.43508 7.08929 -8.32688 10.65968 6.06661 3.53011 70.40202 18.61358 64.68474 -0.76857 26.71826 103.94199 19.58784 12.02540 4.05828 11.82231 -30.71347 58.60148 83.35635 67.51940 -60.74013 -5.68338 0.02660 0.08767 -7.03663 12.61431 1.82911 -41.91689 11.63528 22.55102 41.68755 15.06015 -45.90650 -26.45779 0.00202 -0.00601 3.62009 -33.31850 21.52894 
-412.43182 92.27128 254.33200 26.25864 -28.87683 10.81020 -28.27880 39.14898 11.15788 0.02258 0.01707 0.02078 -12.94613 9.16482 3.01981 -12.90902 15.02909 1.85757 -125.32735 -68.14212 -119.12688 -29.60365 47.51203 -82.04480 18.45212 7.55454 -6.69163 11.26060 5.58620 2.49968 70.65917 16.14931 66.09481 -1.26565 27.00851 104.20832 13.42412 14.16143 2.64188 12.49650 -34.03626 60.65145 87.29932 64.51912 -65.13201 -2.54421 0.05649 0.02202 -6.99831 9.13874 -1.94845 -39.45967 11.27153 20.91519 40.13555 13.53873 -46.03527 -25.50062 -0.00414 -0.01413 5.99581 -27.23247 24.82616 
-412.98993 91.95972 253.82285 24.29709 -26.24023 11.40047 -27.65426 39.06297 11.08413 0.02726 0.01547 0.02002 -11.95688 7.93303 2.60295 -6.41049 12.91270 2.41798 -129.34402 -64.33396 -118.20238 -28.85720 49.88446 -85.62547 17.44275 7.88308 -3.63618 12.17300 4.68110 1.47187 69.98859 12.62439 68.14246 -0.15597 27.22672 103.50903 9.09868 14.88635 2.31204 12.68994 -36.91034 61.88018 86.57946 61.16024 -66.55332 0.47331 0.05589 -0.03501 -7.40051 3.85737 -6.67363 -36.35504 10.27186 18.58496 38.44672 12.80314 -45.54046 -24.29706 -0.01351 -0.01537 8.83620 -18.22880 28.59525 
-413.49454 91.58514 253.42755 21.83596 -23.19974 11.90148 -25.89367 38.61950 10.55708 0.03144 0.01090 0.01708 -11.31142 6.52698 2.40717 1.82446 9.47935 3.69919 -131.96968 -60.91578 -113.29964 -28.04916 51.76508 -88.81010 16.27042 8.28639 -0.77981 13.24740 3.40986 0.41852 68.67569 8.18983 70.62674 2.29835 27.50614 101.99551 5.94769 14.74574 2.43602 12.66543 -39.67552 62.40726 84.33437 57.54236 -67.82446 2.68945 0.05882 -0.04045 -7.96469 -3.05760 -11.30560 -32.78126 8.46584 15.69072 36.68805 12.78351 -44.47136 -22.93579 -0.02270 -0.01528 9.71770 -12.42435 29.62204 
-413.93384 91.18818 253.16785 18.10562 -18.85725 11.96622 -22.19531 36.33356 8.90382 0.03010 -0.01444 -0.00874 -10.79006 4.97457 3.82822 4.51412 7.08543 2.63157 -134.13042 -60.07906 -114.43480 -27.91763 52.01830 -89.85778 14.84636 8.65843 1.35869 15.86359 1.74445 0.21914 65.08287 0.88321 74.06601 8.56604 28.14132 98.33968 5.25976 13.16361 3.33985 12.74108 -42.93022 61.39628 79.75322 53.32420 -70.41691 1.13568 -0.11653 -0.05050 -6.68094 -13.04872 -14.45921 -27.82242 4.69605 11.09758 33.93954 15.32694 -41.27432 -20.37921 -0.07641 -0.02129 6.81379 -14.45264 25.75240 
